<svg xmlns="http://www.w3.org/2000/svg" viewBox="0 0 128 128" id="receipt">
<g data-name="katman 2">
<path fill="#f2f5f9" d="M48 108a6 6 0 0 1-6-6V22a6 6 0 0 0-6-6h48a6 6 0 0 1 6 6v86Z"></path>
<path fill="#183d56" d="M90 98v10H48a6 6 0 0 1-2.62-.6A5 5 0 0 0 48 103v-5a4 4 0 0 1 4-4h34a4 4 0 0 1 4 4Z" opacity=".1"></path>
<path fill="#c7cfef" d="M102 92v10a6 6 0 0 1-6 6H48a6 6 0 0 0 6-6V92l4 4 4-4 4 4 4-4 4 4 4-4 4 4 4-4 4 4 4-4 4 4zM42 22v10l-4 4-4-4-4 4V22a6 6 0 0 1 12 0z"></path>
<path fill="#183d56" d="M42 22v10l-4 4-2-2V22a6 6 0 0 0-3-5.19 5.86 5.86 0 0 1 3-.81 6 6 0 0 1 6 6Z" opacity=".1"></path>
<path fill="none" stroke="#183d56" stroke-linecap="round" stroke-linejoin="round" stroke-width="4" d="m42 32-4 4-4-4-4 4V22a6 6 0 0 1 6-6"></path>
<path fill="none" d="M0 0h128v128H0z"></path><path fill="none" stroke="#183d56" stroke-linecap="round" stroke-linejoin="round" stroke-width="4" d="M48 108a6 6 0 0 1-6-6V22a6 6 0 0 0-6-6h48a6 6 0 0 1 6 6v86ZM46 108H30M22 108h-4"></path>
<path fill="#183d56" d="M102 96v6a6 6 0 0 1-6 6H48a6 6 0 0 0 6-6h42a6 6 0 0 0 6-6Z" opacity=".1"></path>
<path fill="none" stroke="#183d56" stroke-linecap="round" stroke-linejoin="round" stroke-width="4" d="M102 92v10a6 6 0 0 1-6 6H48a6 6 0 0 0 6-6V92l4 4 4-4 4 4 4-4 4 4 4-4 4 4 4-4 4 4 4-4 4 4ZM62 52h18M52 52h2M62 62h12M52 62h2M62 72h18M52 72h2"></path>
<path fill="#183d56" d="M90 75.5V108H79.56A21.89 21.89 0 0 1 76 96a20.82 20.82 0 0 1 .1-2.1A22 22 0 0 1 90 75.5Z" opacity=".1"></path>
<path fill="none" stroke="#183d56" stroke-linecap="round" stroke-linejoin="round" stroke-width="4" d="M67 28v-3M67 43v-3M65 39.12a3 3 0 0 0 2.12.88H67a3 3 0 0 0 0-6 3 3 0 0 1 0-6h-.12a3 3 0 0 1 2.12.88M78 34h2M56 34h-2M80 82h-6M34 54v10"></path>
<circle cx="98" cy="96" r="16" fill="#ffd79c"></circle><path fill="#183d56" d="M103 111.2a16 16 0 1 1 0-30.4 16 16 0 0 0 0 30.4Z" opacity=".1"></path><circle cx="98" cy="96" r="16" fill="none" stroke="#183d56" stroke-linecap="round" stroke-linejoin="round" stroke-width="4"></circle>
<path fill="#f2f5f9" stroke="#183d56" stroke-linecap="round" stroke-linejoin="round" stroke-width="4" d="M104 102H92l-2-8h16l-2 8z"></path>
<path fill="none" stroke="#183d56" stroke-linecap="round" stroke-linejoin="round" stroke-width="4" d="M97 88h2a3 3 0 0 1 3 3v3h0-8 0v-3a3 3 0 0 1 3-3Z"></path>
</g>
</svg>